<svg width="15" height="28" viewBox="0 0 15 28" fill="none" xmlns="http://www.w3.org/2000/svg">
<path d="M14.9997 15.7654C14.9533 19.8487 11.6377 23.1664 7.4971 23.1712C3.34887 23.1712 -0.00873524 19.8122 1.70722e-05 15.6498C0.00760768 14.6651 0.209112 13.6916 0.593026 12.7849C0.97694 11.8781 1.53574 11.0558 2.23753 10.3649C2.93932 9.67403 3.77036 9.12811 4.68318 8.75832C5.59601 8.38853 6.57275 8.20211 7.55764 8.2097C8.54253 8.21728 9.51628 8.41874 10.4233 8.80255C11.3303 9.18636 12.1528 9.74502 12.8439 10.4466C13.5349 11.1482 14.081 11.9791 14.4509 12.8916C14.8208 13.8042 15.0072 14.7807 14.9997 15.7654Z" fill="#FEFEFE"/>
<path d="M14.9998 15.7451C14.9535 19.8387 11.6378 23.1647 7.49716 23.1694C3.3489 23.1694 -0.00873531 19.8021 1.70724e-05 15.6293C0.00760774 14.6422 0.209114 13.6663 0.593031 12.7572C0.976949 11.8482 1.53576 11.0238 2.23755 10.3312C2.93935 9.63863 3.77039 9.09134 4.68322 8.72063C5.59605 8.34991 6.5728 8.16303 7.5577 8.17063C8.5426 8.17824 9.51636 8.3802 10.4234 8.76497C11.3304 9.14974 12.1529 9.70979 12.844 10.4132C13.535 11.1165 14.0811 11.9494 14.451 12.8643C14.8209 13.7791 15.0074 14.7581 14.9998 15.7451Z" fill="url(#paint0_linear_278_5442)"/>
<path d="M7.04789 19.6709C7.02092 19.6471 6.99814 19.6291 6.97777 19.6089C6.66671 19.2985 6.35895 18.9848 6.0431 18.6799C5.96189 18.6013 6.01134 18.5685 6.06168 18.5179C6.96548 17.6072 7.86978 16.697 8.77457 15.7875C8.87406 15.6881 8.88425 15.637 8.77877 15.5316C7.87437 14.6285 6.97747 13.7184 6.07487 12.8138C5.99576 12.7346 5.98257 12.6934 6.07067 12.6076C6.37034 12.321 6.66352 12.0283 6.9502 11.7295C7.03171 11.6449 7.07216 11.6569 7.14768 11.7337C8.41327 13.0161 9.68127 14.2963 10.9517 15.5743C11.0263 15.6496 11.0071 15.6842 10.9445 15.7468C10.4464 16.2444 9.95037 16.7438 9.45632 17.2451C8.68717 18.0218 7.91802 18.7988 7.14888 19.5761C7.11861 19.6074 7.08505 19.6363 7.04789 19.6709Z" fill="#FEFEFE"/>
<defs>
<linearGradient id="paint0_linear_278_5442" x1="7.5" y1="23.1694" x2="7.5" y2="8.17041" gradientUnits="userSpaceOnUse">
<stop stop-color="#0D4162"/>
<stop offset="1" stop-color="#067CCC"/>
</linearGradient>
</defs>
</svg>
