<svg width="21" height="21" viewBox="0 0 21 21" fill="none" xmlns="http://www.w3.org/2000/svg">
<path d="M10.6154 12.5255C8.81135 12.5255 7.33765 11.0603 7.33765 9.24777C7.33765 7.43528 8.81135 5.97852 10.6154 5.97852C12.4194 5.97852 13.8931 7.44375 13.8931 9.25624C13.8931 11.0687 12.4194 12.5255 10.6154 12.5255ZM10.6154 7.24895C9.51433 7.24895 8.60808 8.14673 8.60808 9.25624C8.60808 10.3658 9.50586 11.2635 10.6154 11.2635C11.7249 11.2635 12.6227 10.3658 12.6227 9.25624C12.6227 8.14673 11.7164 7.24895 10.6154 7.24895Z" fill="#667085"/>
<path d="M10.6155 19.8006C9.36195 19.8006 8.09999 19.3263 7.11751 18.3862C4.61899 15.9808 1.8579 12.1441 2.89966 7.57898C3.83979 3.43736 7.4563 1.58252 10.6155 1.58252C10.6155 1.58252 10.6155 1.58252 10.6239 1.58252C13.7831 1.58252 17.3996 3.43736 18.3397 7.58745C19.373 12.1526 16.6119 15.9808 14.1134 18.3862C13.1309 19.3263 11.869 19.8006 10.6155 19.8006ZM10.6155 2.85296C8.1508 2.85296 4.98318 4.16574 4.14469 7.85848C3.22998 11.8477 5.73697 15.2863 8.00682 17.463C9.47206 18.8774 11.7673 18.8774 13.2326 17.463C15.4939 15.2863 18.0009 11.8477 17.1032 7.85848C16.2562 4.16574 13.0801 2.85296 10.6155 2.85296Z" fill="#667085"/>
</svg>
