<svg width="110" height="48" viewBox="0 0 110 48" fill="none" xmlns="http://www.w3.org/2000/svg">
<path d="M11.9434 39.5227V7.70483L55.647 0L98.0558 7.69195V39.5356L55.647 47.2275L11.9434 39.5227Z" fill="#6CA8CE"/>
<path d="M12.5879 38.9817V8.2461L55.6409 0.657227L97.4119 8.22677V38.9946L55.6409 46.5706L12.5879 38.9817Z" fill="white"/>
<path d="M13.2322 38.4403V8.78697L55.641 1.30762L96.7678 8.76765V38.4596L55.641 45.9196L13.2322 38.4403Z" fill="#383736"/>
<path d="M13.876 37.8993V9.32824L55.6405 1.96484L96.1231 9.30247V37.9186L55.6405 45.2626L13.876 37.8993Z" fill="white"/>
<path d="M14.5208 37.3583V9.8696L55.6347 2.61572L95.4795 9.84383V37.3841L55.6347 44.6122L14.5208 37.3583Z" fill="#383736"/>
<path d="M55.0035 42.4668C85.2458 42.4668 109.762 34.0246 109.762 23.6106C109.762 13.1966 85.2458 4.75439 55.0035 4.75439C24.7613 4.75439 0.245117 13.1966 0.245117 23.6106C0.245117 34.0246 24.7613 42.4668 55.0035 42.4668Z" fill="#CCE9F3"/>
<path d="M55.0032 4.50928C26.5095 4.50928 3.01493 12.0788 0.270571 21.7227C0.198783 21.9658 0.142833 22.2133 0.103075 22.4636C0.0492812 22.7205 0.0148264 22.9811 0 23.2431C0 23.3655 0 23.4879 0 23.6167C0 23.7456 0 23.8615 0 23.9839C0.0105772 24.2457 0.0407248 24.5062 0.0901903 24.7635C0.128843 25.0083 0.186823 25.2595 0.251245 25.5043C2.98917 35.1676 26.4902 42.7113 55.0097 42.7113C85.3329 42.7113 110.006 34.1432 110.006 23.6167C110.006 13.0902 85.3265 4.50928 55.0032 4.50928ZM55.0032 42.2217C26.8059 42.2217 3.54319 34.8777 0.760176 25.4721C0.688388 25.229 0.632438 24.9816 0.592679 24.7312C0.541098 24.4742 0.508797 24.2136 0.496047 23.9517C0.496047 23.8293 0.496047 23.7069 0.496047 23.5845C0.496047 23.4621 0.496047 23.3333 0.496047 23.2109C0.508797 22.949 0.541098 22.6884 0.592679 22.4314C0.632323 22.1805 0.690461 21.9329 0.766618 21.6905C3.54963 12.3107 26.8123 4.9409 55.0032 4.9409C85.0624 4.9409 109.517 13.3157 109.517 23.5588C109.517 33.8018 85.0366 42.2282 55.0032 42.2282V42.2217Z" fill="#C6D1E9"/>
<path d="M55.0035 40.4245C84.1784 40.4245 107.829 32.8966 107.829 23.6104C107.829 14.3243 84.1784 6.79639 55.0035 6.79639C25.8286 6.79639 2.17773 14.3243 2.17773 23.6104C2.17773 32.8966 25.8286 40.4245 55.0035 40.4245Z" fill="url(#paint0_linear_988_1843)"/>
<path d="M16.6599 21.7231V22.464H0.103516C0.143274 22.2137 0.199224 21.9662 0.271012 21.7231H16.6599Z" fill="#C6D1E9"/>
<path d="M16.6594 23.2432V23.984H0C0 23.8616 0 23.7392 0 23.6168C0 23.4944 0 23.3656 0 23.2432H16.6594Z" fill="#C6D1E9"/>
<path d="M16.6599 24.7637V25.5045H0.26457C0.200148 25.2597 0.142169 25.0085 0.103516 24.7637H16.6599Z" fill="#C6D1E9"/>
<path d="M93.3408 21.7231V22.464H109.897C109.857 22.2137 109.801 21.9662 109.73 21.7231H93.3408Z" fill="#C6D1E9"/>
<path d="M93.3408 23.2432V23.984H109.987C109.987 23.8616 109.987 23.7392 109.987 23.6168C109.987 23.4944 109.987 23.3656 109.987 23.2432H93.3408Z" fill="#C6D1E9"/>
<path d="M93.3408 24.7637V25.5045H109.736C109.801 25.2597 109.859 25.0085 109.897 24.7637H93.3408Z" fill="#C6D1E9"/>
<path d="M17.7161 29.3956V14.0825H20.8341V26.7929H28.5647V29.3698L17.7161 29.3956Z" fill="white"/>
<path d="M30.1755 21.7681C30.1342 20.4132 30.3733 19.0644 30.8776 17.8062C31.2295 17.0234 31.7157 16.3083 32.3143 15.6932C32.8797 15.0999 33.5589 14.6266 34.3113 14.3017C35.3693 13.8766 36.5019 13.6685 37.6419 13.6897C38.6489 13.6437 39.6543 13.8085 40.5939 14.1734C41.5335 14.5384 42.3865 15.0955 43.0984 15.8091C44.4642 17.2221 45.147 19.1848 45.147 21.6973C45.147 24.2097 44.4706 26.1595 43.1178 27.5468C42.4065 28.2537 41.5556 28.8045 40.6193 29.1639C39.6831 29.5233 38.6822 29.6834 37.6806 29.634C36.6745 29.6852 35.6687 29.5267 34.7272 29.1685C33.7856 28.8103 32.9288 28.2602 32.2112 27.5532C30.854 26.1574 30.1755 24.229 30.1755 21.7681ZM33.3965 21.6651C33.3965 23.413 33.8002 24.738 34.6077 25.6399C34.9903 26.0775 35.4645 26.4255 35.9967 26.6593C36.5288 26.8931 37.1059 27.0069 37.687 26.9927C38.2644 27.0092 38.8382 26.8976 39.3673 26.666C39.8964 26.4343 40.3676 26.0883 40.747 25.6528C41.5373 24.7552 41.9346 23.4109 41.9388 21.62C41.9431 19.829 41.5545 18.5106 40.7728 17.6645C40.3857 17.2349 39.9082 16.8966 39.3746 16.6738C38.841 16.451 38.2646 16.3493 37.687 16.376C37.1031 16.3531 36.5213 16.4596 35.9833 16.6879C35.4454 16.9162 34.9646 17.2607 34.5755 17.6967C33.7809 18.5642 33.3837 19.887 33.3837 21.6651H33.3965Z" fill="white"/>
<path d="M54.7584 23.7203V21.1434H61.484V27.2893C60.6494 28.0233 59.6771 28.584 58.6237 28.9384C57.4294 29.3986 56.1606 29.6345 54.8808 29.6342C53.4076 29.668 51.951 29.3171 50.6547 28.6163C49.4805 27.9693 48.5353 26.9746 47.949 25.7689C47.329 24.4745 47.0138 23.0553 47.0278 21.6202C46.9991 20.1298 47.347 18.6563 48.0392 17.3361C48.7008 16.0932 49.7348 15.0885 50.9961 14.4629C52.1488 13.9121 53.4172 13.6469 54.6939 13.6898C56.2877 13.595 57.8694 14.0176 59.2035 14.8945C60.2868 15.7104 61.0284 16.8997 61.2843 18.2316L58.1856 18.8114C57.9944 18.0902 57.5625 17.4561 56.9616 17.014C56.301 16.5629 55.5125 16.337 54.7133 16.3698C54.1105 16.3402 53.5083 16.4398 52.9472 16.6621C52.3861 16.8843 51.879 17.2239 51.46 17.6582C50.6611 18.5215 50.2553 19.8035 50.2553 21.5235C50.2553 23.3531 50.6633 24.7274 51.4793 25.6465C51.8806 26.1001 52.3779 26.4585 52.9351 26.6959C53.4923 26.9332 54.0953 27.0435 54.7004 27.0187C55.3738 27.0144 56.0404 26.8833 56.6652 26.6322C57.2698 26.4062 57.8383 26.0937 58.3531 25.7045V23.7718L54.7584 23.7203Z" fill="white"/>
<path d="M78.2787 29.3958H74.8901L73.5437 25.8848H67.3721L66.0837 29.3958H62.7917L68.8023 13.9346H72.1007L78.2787 29.3958ZM72.5387 23.2886L70.4128 17.5551L68.332 23.2886H72.5387Z" fill="white"/>
<path d="M79.9666 29.3958V13.9346H83.0008L89.3206 24.242V13.9346H92.2131V29.3958H89.0887L82.8655 19.3267V29.3958H79.9666Z" fill="white"/>
<path d="M26.6384 34.8394H25.9942L25.7236 34.1436H24.5318L24.287 34.8265H23.6428L24.8024 31.8438H25.4466L26.6384 34.8394ZM25.5304 33.6604L25.1245 32.5524L24.7251 33.6604H25.5304Z" fill="white"/>
<path d="M26.9414 34.8392V31.8564H27.547V34.8392H26.9414Z" fill="white"/>
<path d="M28.1201 34.8395V31.8568H29.4086C29.6431 31.8463 29.8778 31.8723 30.1043 31.9341C30.2479 31.9884 30.37 32.0878 30.4522 32.2175C30.5375 32.3595 30.5821 32.5222 30.581 32.6878C30.5891 32.8934 30.5176 33.0941 30.3813 33.2483C30.223 33.4034 30.0159 33.499 29.7951 33.5188C29.9136 33.5872 30.022 33.6717 30.1172 33.7701C30.2454 33.9205 30.3596 34.0822 30.4586 34.2532L30.8258 34.8395H30.085L29.6469 34.1953C29.552 34.0421 29.4465 33.8957 29.3312 33.7572C29.282 33.7023 29.2201 33.6602 29.1509 33.6348C29.0529 33.6044 28.9505 33.5913 28.8481 33.5961H28.7257V34.8459L28.1201 34.8395ZM28.7257 33.1194H29.1702C29.3515 33.1292 29.5333 33.1162 29.7113 33.0808C29.7796 33.057 29.8384 33.0118 29.8788 32.9519C29.922 32.8847 29.9444 32.8063 29.9432 32.7264C29.9456 32.6394 29.9158 32.5546 29.8595 32.4881C29.8024 32.4214 29.7215 32.3797 29.634 32.3721C29.5825 32.3721 29.4408 32.3721 29.196 32.3721H28.7257V33.1194Z" fill="white"/>
<path d="M31.1289 34.8392V31.8565H32.0952C32.3345 31.8455 32.5743 31.8606 32.8103 31.9016C32.984 31.944 33.137 32.0467 33.2419 32.1915C33.364 32.3594 33.4254 32.5639 33.4159 32.7713C33.4221 32.9322 33.3866 33.092 33.3128 33.2351C33.2541 33.3509 33.1678 33.4504 33.0616 33.525C32.9694 33.5931 32.8641 33.6413 32.7523 33.6667C32.5397 33.7039 32.3238 33.719 32.1081 33.7118H31.7151V34.8392H31.1289ZM31.7345 32.359V33.2029H32.063C32.2233 33.2125 32.3841 33.1973 32.5397 33.1578C32.6161 33.1293 32.6815 33.0775 32.7266 33.0096C32.774 32.9417 32.7988 32.8606 32.7974 32.7777C32.8008 32.6805 32.7662 32.5857 32.7008 32.5136C32.6362 32.443 32.5502 32.3954 32.456 32.3783C32.3123 32.3679 32.1681 32.3679 32.0244 32.3783L31.7345 32.359Z" fill="white"/>
<path d="M33.7892 33.3642C33.7818 33.1021 33.8278 32.8413 33.9245 32.5976C33.991 32.4464 34.0849 32.3088 34.2015 32.1917C34.3094 32.0748 34.4412 31.9826 34.588 31.9212C34.793 31.8404 35.0119 31.8009 35.2322 31.8052C35.4268 31.7963 35.6211 31.8277 35.803 31.8975C35.9848 31.9674 36.1502 32.0741 36.2888 32.2111C36.4261 32.3659 36.5315 32.5463 36.599 32.742C36.6664 32.9377 36.6945 33.1447 36.6817 33.3513C36.6946 33.5559 36.6664 33.7611 36.599 33.9547C36.5315 34.1482 36.426 34.3264 36.2888 34.4787C36.1527 34.6176 35.9888 34.7261 35.8078 34.7972C35.6268 34.8682 35.4329 34.9002 35.2387 34.891C35.044 34.9011 34.8493 34.8703 34.6673 34.8003C34.4853 34.7304 34.32 34.623 34.1822 34.4851C34.0454 34.3338 33.9402 34.1568 33.8727 33.9643C33.8052 33.7718 33.7768 33.5678 33.7892 33.3642ZM34.4334 33.3642C34.4037 33.6406 34.4771 33.9182 34.6396 34.1437C34.7156 34.2259 34.8077 34.2914 34.9103 34.3363C35.0128 34.3811 35.1235 34.4043 35.2355 34.4043C35.3474 34.4043 35.4581 34.3811 35.5606 34.3363C35.6632 34.2914 35.7554 34.2259 35.8314 34.1437C36.0087 33.9143 36.0958 33.6278 36.0762 33.3384C36.0996 33.0637 36.0191 32.7901 35.8507 32.5718C35.7766 32.4888 35.685 32.4232 35.5825 32.3797C35.48 32.3363 35.3692 32.3161 35.258 32.3206C35.1449 32.316 35.0321 32.336 34.9275 32.3794C34.8229 32.4228 34.7291 32.4885 34.6524 32.5718C34.481 32.7919 34.3941 33.0662 34.4076 33.3449L34.4334 33.3642Z" fill="white"/>
<path d="M37.1523 34.8392V31.8565H38.4408C38.6753 31.8454 38.9101 31.8715 39.1365 31.9338C39.2801 31.9881 39.4022 32.0876 39.4844 32.2172C39.5697 32.3592 39.6143 32.5219 39.6133 32.6875C39.6213 32.8931 39.5498 33.0938 39.4135 33.248C39.2552 33.4032 39.0481 33.4988 38.8273 33.5185C38.9459 33.5869 39.0543 33.6714 39.1494 33.7698C39.2776 33.9202 39.3919 34.0819 39.4909 34.253L39.8581 34.8392H39.1172L38.6791 34.195C38.5843 34.0418 38.4788 33.8954 38.3635 33.7569C38.3143 33.702 38.2523 33.6599 38.1831 33.6345C38.0852 33.6041 37.9827 33.5911 37.8803 33.5959H37.7579V34.8456L37.1523 34.8392ZM37.7579 33.1191H38.2024C38.3837 33.1289 38.5655 33.1159 38.7436 33.0805C38.8118 33.0567 38.8706 33.0115 38.9111 32.9516C38.957 32.8857 38.9797 32.8064 38.9755 32.7262C38.9779 32.6829 38.9718 32.6395 38.9574 32.5986C38.9431 32.5577 38.9207 32.52 38.8917 32.4878C38.8347 32.4211 38.7537 32.3795 38.6663 32.3718C38.6147 32.3718 38.473 32.3718 38.2282 32.3718H37.7579V33.1191Z" fill="white"/>
<path d="M40.8369 34.8392V32.3589H39.9414V31.8564H42.3121V32.3589H41.436V34.8392H40.8369Z" fill="white"/>
<path d="M44.5411 34.8392V32.3589H43.6521V31.8564H46.0228V32.3589H45.1402V34.8392H44.5411Z" fill="white"/>
<path d="M48.7925 34.8394H48.1483L47.8777 34.1436H46.6859L46.4411 34.8265H45.7969L46.9629 31.8438H47.6071L48.7925 34.8394ZM47.6715 33.6604L47.2592 32.5524L46.8598 33.6604H47.6715Z" fill="white"/>
<path d="M48.8123 34.8392L49.8301 33.2802L48.9089 31.8564H49.6046L50.2038 32.8099L50.79 31.8564H51.4858L50.5645 33.3059L51.5824 34.8392H50.8931L50.2489 33.8084L49.6046 34.8392H48.8123Z" fill="white"/>
<path d="M51.8787 34.8392V31.8564H52.4778V34.8392H51.8787Z" fill="white"/>
<path d="M56.8517 34.4721L56.5038 34.9166C56.3256 34.8259 56.1609 34.711 56.0142 34.5752C55.9022 34.6792 55.7709 34.7602 55.6276 34.8136C55.4726 34.8684 55.3089 34.8945 55.1445 34.8909C54.9903 34.9023 54.8355 34.88 54.6909 34.8255C54.5463 34.771 54.4152 34.6856 54.307 34.5752C54.1675 34.4243 54.0894 34.2267 54.088 34.0212C54.0855 33.8346 54.1468 33.6527 54.2619 33.5058C54.3971 33.3338 54.5716 33.1969 54.7708 33.1064C54.6789 33.0009 54.601 32.884 54.5389 32.7585C54.4906 32.6624 54.4642 32.5568 54.4616 32.4493C54.4615 32.3615 54.4812 32.2749 54.5191 32.1957C54.557 32.1165 54.6122 32.0469 54.6806 31.9919C54.8608 31.8684 55.0742 31.8022 55.2927 31.8022C55.5111 31.8022 55.7245 31.8684 55.9047 31.9919C55.9734 32.0523 56.0284 32.1266 56.0662 32.2099C56.104 32.2932 56.1236 32.3836 56.1237 32.4751C56.1376 32.6067 56.1106 32.7394 56.0464 32.8552C55.925 33.0043 55.7763 33.1289 55.6083 33.2224L56.0271 33.7699C56.0817 33.6616 56.1228 33.5469 56.1495 33.4285L56.6713 33.5445C56.6362 33.6829 56.591 33.8185 56.536 33.9503C56.5009 34.0243 56.4599 34.0954 56.4136 34.1629C56.4908 34.2327 56.5726 34.2973 56.6584 34.3562C56.7196 34.3999 56.7842 34.4387 56.8517 34.4721ZM55.0672 33.4994C54.9505 33.5536 54.8488 33.6354 54.7708 33.7377C54.7093 33.822 54.6755 33.9233 54.6742 34.0276C54.6734 34.0827 54.6839 34.1374 54.7049 34.1884C54.7259 34.2393 54.7571 34.2855 54.7966 34.324C54.8388 34.3657 54.8892 34.3982 54.9447 34.4193C55.0002 34.4403 55.0595 34.4496 55.1187 34.4464C55.2099 34.4459 55.2999 34.4262 55.3828 34.3884C55.4807 34.3433 55.5717 34.2847 55.6534 34.2144L55.0672 33.4994ZM55.2927 32.8552L55.4473 32.7392C55.4947 32.7116 55.5351 32.6734 55.5653 32.6276C55.5955 32.5818 55.6146 32.5296 55.6212 32.4751C55.6204 32.4399 55.6125 32.4053 55.5982 32.3732C55.5838 32.3411 55.5631 32.3122 55.5375 32.2882C55.4749 32.2346 55.3943 32.2069 55.312 32.2109C55.2348 32.2078 55.1592 32.233 55.0994 32.2818C55.0757 32.3001 55.0565 32.3235 55.0431 32.3503C55.0298 32.3771 55.0226 32.4065 55.0221 32.4364C55.0361 32.5339 55.0813 32.6243 55.1509 32.6941L55.2927 32.8552Z" fill="white"/>
<path d="M60.2859 33.7375L60.8722 33.9243C60.8077 34.2091 60.6515 34.4648 60.4276 34.6523C60.1969 34.8167 59.9184 34.9005 59.6353 34.8906C59.4526 34.8963 59.2708 34.863 59.102 34.7931C58.9332 34.7231 58.7811 34.618 58.656 34.4848C58.3879 34.1776 58.2514 33.7773 58.276 33.3703C58.2484 32.9492 58.3846 32.5338 58.656 32.2107C58.7841 32.0721 58.9411 31.9633 59.1159 31.8921C59.2907 31.8208 59.479 31.7888 59.6675 31.7984C59.9383 31.7757 60.2082 31.851 60.4281 32.0107C60.6481 32.1703 60.8034 32.4036 60.8657 32.6681L60.2666 32.8098C60.2403 32.6668 60.1624 32.5384 60.0476 32.4491C59.9316 32.359 59.7884 32.3113 59.6417 32.3138C59.539 32.3074 59.4363 32.3257 59.3422 32.3672C59.248 32.4087 59.1652 32.4721 59.1006 32.5521C58.9438 32.7755 58.8708 33.0469 58.8944 33.3187C58.86 33.6096 58.9334 33.9029 59.1006 34.1433C59.1632 34.2228 59.2437 34.2863 59.3355 34.3288C59.4272 34.3714 59.5277 34.3917 59.6288 34.3881C59.7809 34.3908 59.9283 34.3355 60.0411 34.2335C60.1753 34.0998 60.2614 33.9254 60.2859 33.7375Z" fill="white"/>
<path d="M64.0802 34.8394H63.436L63.1654 34.1436H61.9736L61.7223 34.8265H61.0781L62.2442 31.8438H62.8884L64.0802 34.8394ZM62.9721 33.6604L62.5598 32.5524L62.154 33.6604H62.9721Z" fill="white"/>
<path d="M64.4216 34.8393V31.8566H65.7101C65.9446 31.8465 66.1792 31.8726 66.4058 31.9339C66.5496 31.985 66.6706 32.0854 66.7473 32.2174C66.8375 32.3575 66.8845 32.521 66.8825 32.6876C66.888 32.8928 66.8168 33.0927 66.6828 33.2481C66.5226 33.4042 66.3131 33.4998 66.0901 33.5187C66.2106 33.5871 66.3211 33.6716 66.4187 33.7699C66.5447 33.922 66.6588 34.0835 66.7601 34.2531L67.1209 34.8393H66.3543L65.9162 34.1951C65.82 34.0412 65.7123 33.8948 65.5941 33.757C65.546 33.7008 65.4837 33.6585 65.4137 33.6346C65.3161 33.6032 65.2134 33.5901 65.1109 33.596H64.9885V34.8458L64.4216 34.8393ZM65.0208 33.1193H65.4717C65.653 33.1283 65.8347 33.1153 66.0128 33.0806C66.0811 33.0569 66.1399 33.0117 66.1803 32.9518C66.2213 32.8839 66.2414 32.8055 66.2383 32.7263C66.2424 32.6401 66.215 32.5553 66.161 32.4879C66.104 32.4212 66.023 32.3796 65.9355 32.372C65.884 32.372 65.7358 32.372 65.491 32.372H65.0208V33.1193Z" fill="white"/>
<path d="M68.4158 33.8663L69.002 33.8083C69.0198 33.9728 69.0951 34.1256 69.2146 34.24C69.3382 34.3396 69.4942 34.39 69.6527 34.3817C69.8087 34.3955 69.9645 34.352 70.0907 34.2593C70.1354 34.225 70.1718 34.1811 70.1974 34.131C70.2231 34.0809 70.2372 34.0257 70.2389 33.9694C70.2414 33.9032 70.2183 33.8386 70.1745 33.789C70.115 33.7296 70.0421 33.6854 69.9619 33.6602C69.891 33.6602 69.73 33.5957 69.4787 33.5313C69.2325 33.4826 68.9996 33.3815 68.7959 33.235C68.7095 33.1611 68.6405 33.0692 68.5937 32.9656C68.547 32.8621 68.5236 32.7495 68.5253 32.6359C68.5225 32.4841 68.5675 32.3353 68.6541 32.2107C68.743 32.0723 68.874 31.9661 69.0278 31.9079C69.214 31.8334 69.4136 31.7983 69.614 31.8048C69.9158 31.7804 70.2161 31.8675 70.4579 32.0496C70.5505 32.1296 70.6248 32.2285 70.6759 32.3396C70.727 32.4508 70.7537 32.5715 70.7543 32.6938H70.1552C70.143 32.5671 70.0831 32.4496 69.9877 32.3653C69.8769 32.2876 69.7424 32.2512 69.6076 32.2622C69.4621 32.2546 69.3179 32.293 69.1953 32.3717C69.1648 32.3923 69.14 32.4201 69.1231 32.4528C69.1062 32.4854 69.0978 32.5218 69.0986 32.5586C69.0996 32.5934 69.1081 32.6276 69.1237 32.6588C69.1393 32.6899 69.1615 32.7173 69.1888 32.7389C69.36 32.8382 69.5477 32.9059 69.7429 32.9386C69.9651 32.9844 70.1813 33.0557 70.3871 33.1512C70.5222 33.2203 70.6358 33.325 70.7156 33.454C70.7989 33.5989 70.8412 33.7637 70.838 33.9307C70.8367 34.1008 70.7851 34.2666 70.6899 34.4075C70.5983 34.561 70.4576 34.679 70.2904 34.7424C70.0846 34.8193 69.866 34.8565 69.6462 34.852C69.3339 34.8725 69.0247 34.7786 68.7765 34.5878C68.5719 34.3997 68.4435 34.1429 68.4158 33.8663Z" fill="white"/>
<path d="M71.3467 34.8392V31.8564H73.5628V32.3589H71.9522V33.0032H73.4404V33.4992H71.9458V34.3367H73.6079V34.8392H71.3467Z" fill="white"/>
<path d="M74.1301 34.8393V31.8566H75.4186C75.6531 31.8465 75.8877 31.8726 76.1143 31.9339C76.2579 31.9882 76.38 32.0877 76.4622 32.2174C76.5475 32.3593 76.5921 32.522 76.591 32.6876C76.5991 32.8932 76.5276 33.094 76.3913 33.2481C76.233 33.4033 76.0259 33.4989 75.8051 33.5187C75.9236 33.587 76.0321 33.6716 76.1272 33.7699C76.2554 33.9203 76.3696 34.0821 76.4686 34.2531L76.8294 34.8393H76.1143L75.6762 34.1951C75.5814 34.0419 75.4759 33.8955 75.3606 33.757C75.3103 33.7034 75.2487 33.6616 75.1802 33.6346C75.0823 33.6043 74.9798 33.5912 74.8774 33.596H74.7292V34.8458L74.1301 34.8393ZM74.7357 33.1193H75.1802C75.3615 33.1291 75.5433 33.1161 75.7213 33.0806C75.7896 33.0569 75.8484 33.0117 75.8888 32.9518C75.932 32.8846 75.9544 32.8062 75.9533 32.7263C75.9556 32.6393 75.9258 32.5544 75.8695 32.4879C75.8124 32.4212 75.7315 32.3796 75.644 32.372C75.5925 32.372 75.4443 32.372 75.206 32.372H74.7292L74.7357 33.1193Z" fill="white"/>
<path d="M77.8217 34.8392L76.7588 31.8564H77.403L78.1632 34.0597L78.8911 31.8564H79.5354L78.466 34.8392H77.8217Z" fill="white"/>
<path d="M79.8252 34.8392V31.8564H80.4308V34.8392H79.8252Z" fill="white"/>
<path d="M82.9103 33.7375L83.4965 33.9243C83.4336 34.2113 83.2745 34.4682 83.0456 34.6523C82.8148 34.8167 82.5363 34.9005 82.2532 34.8907C82.0716 34.8954 81.8911 34.8617 81.7234 34.7918C81.5558 34.7218 81.4048 34.6172 81.2804 34.4848C81.01 34.1786 80.8711 33.7782 80.8939 33.3703C80.8671 32.9502 81.0058 32.5363 81.2804 32.2172C81.4085 32.0786 81.5655 31.9698 81.7403 31.8985C81.9151 31.8273 82.1034 31.7953 82.2918 31.8049C82.454 31.7966 82.6162 31.8208 82.7689 31.8761C82.9216 31.9314 83.0616 32.0167 83.1809 32.127C83.3303 32.2781 83.4351 32.4676 83.4836 32.6746L82.891 32.8163C82.8605 32.6749 82.7834 32.5478 82.6719 32.4555C82.5543 32.3641 82.4086 32.3163 82.2596 32.3202C82.158 32.3149 82.0566 32.3338 81.9637 32.3752C81.8707 32.4166 81.7889 32.4795 81.7249 32.5586C81.5656 32.7807 81.4923 33.0531 81.5188 33.3252C81.4907 33.6086 81.5612 33.8931 81.7185 34.1305C81.7811 34.2099 81.8616 34.2735 81.9534 34.316C82.0452 34.3585 82.1457 34.3788 82.2468 34.3753C82.4003 34.3753 82.5488 34.3205 82.6655 34.2207C82.7924 34.0869 82.8775 33.919 82.9103 33.7375Z" fill="white"/>
<path d="M84.0127 34.8392V31.8564H86.2224V32.3589H84.6183V33.0032H86.1128V33.4992H84.6183V34.3367H86.2803V34.8392H84.0127Z" fill="white"/>
<defs>
<linearGradient id="paint0_linear_988_1843" x1="55.0035" y1="40.0122" x2="55.0035" y2="6.75129" gradientUnits="userSpaceOnUse">
<stop stop-color="#0D4162"/>
<stop offset="1" stop-color="#065E99"/>
</linearGradient>
</defs>
</svg>
