<svg width="15" height="16" viewBox="0 0 15 16" fill="none" xmlns="http://www.w3.org/2000/svg">
<g clip-path="url(#clip0_988_1901)">
<path d="M7.5 8.56377C5.23333 8.56377 3.5 9.08044 2.3 10.1138C1.1 11.1471 0.5 12.6304 0.5 14.5638C0.5 14.7304 0.558333 14.8638 0.675 14.9638C0.791667 15.0638 0.916667 15.1138 1.05 15.1138H13.95C14.0833 15.1138 14.2083 15.0638 14.325 14.9638C14.4417 14.8638 14.5 14.7304 14.5 14.5638C14.5 12.6304 13.9 11.1471 12.7 10.1138C11.5 9.08044 9.76667 8.56377 7.5 8.56377ZM1.65 14.0138C1.85 11.1138 3.8 9.66377 7.5 9.66377C11.2 9.66377 13.15 11.1138 13.35 14.0138H1.65ZM7.5 0.11377C6.83333 0.11377 6.21667 0.272102 5.65 0.588769C5.08333 0.905436 4.64167 1.3471 4.325 1.91377C4.00833 2.48044 3.85 3.11377 3.85 3.81377C3.85 4.51377 4.01667 5.1721 4.35 5.78877C4.68333 6.40544 5.125 6.88877 5.675 7.23877C6.225 7.58877 6.83333 7.76377 7.5 7.76377C8.16667 7.76377 8.775 7.58877 9.325 7.23877C9.875 6.88877 10.3167 6.40544 10.65 5.78877C10.9833 5.1721 11.15 4.51377 11.15 3.81377C11.15 3.11377 10.9917 2.48044 10.675 1.91377C10.3583 1.3471 9.91667 0.905436 9.35 0.588769C8.78333 0.272102 8.16667 0.11377 7.5 0.11377ZM7.5 6.66377C6.8 6.66377 6.2 6.38877 5.7 5.83877C5.2 5.28877 4.95 4.6221 4.95 3.83877C4.95 3.05544 5.19167 2.4221 5.675 1.93877C6.15833 1.45544 6.76667 1.21377 7.5 1.21377C8.23333 1.21377 8.84167 1.46377 9.325 1.96377C9.80833 2.46377 10.05 3.0971 10.05 3.86377C10.05 4.63044 9.8 5.28877 9.3 5.83877C8.8 6.38877 8.2 6.66377 7.5 6.66377Z" fill="white"/>
</g>
<defs>
<clipPath id="clip0_988_1901">
<rect width="15" height="15" fill="white" transform="matrix(1 0 0 -1 0 15.1138)"/>
</clipPath>
</defs>
</svg>
