<svg width="15" height="15" viewBox="0 0 15 15" fill="none" xmlns="http://www.w3.org/2000/svg">
<g clip-path="url(#clip0_988_1897)">
<path fill-rule="evenodd" clip-rule="evenodd" d="M7.0363 0.0303223C5.08068 0.276504 3.63089 1.84529 3.52633 3.8284C3.48013 4.70479 3.79944 5.7186 4.33202 6.3866C4.5122 6.61257 4.78012 6.89382 4.94342 7.02841C5.02961 7.09945 5.08964 7.16619 5.0769 7.17674C5.06412 7.18729 4.92183 7.24626 4.7607 7.30778C3.11679 7.93559 1.71892 9.15305 0.843118 10.7198C0.527415 11.2846 0.274729 11.9194 0.113215 12.5536C-0.050144 13.195 -0.0269116 13.5639 0.205999 14.0268C0.412835 14.4379 0.73926 14.7248 1.20113 14.9013L1.42085 14.9852L5.26153 14.9932L9.1022 15.0011L9.25952 14.9189C9.38723 14.8522 9.43226 14.8073 9.49847 14.6806C9.60265 14.4811 9.60265 14.3468 9.49847 14.1473C9.43244 14.0209 9.38714 13.9756 9.26073 13.9096L9.1046 13.828L5.40921 13.8278C2.92094 13.8277 1.67767 13.8176 1.60317 13.797C1.38057 13.7351 1.17397 13.4715 1.17247 13.2474C1.17212 13.1939 1.2054 13.0159 1.24648 12.8519C1.82055 10.5576 3.63394 8.74655 5.94722 8.15728C6.55949 8.00133 7.54217 7.92859 8.14369 7.99468C8.81817 8.0688 9.52457 8.25563 10.1148 8.51599C10.4443 8.66136 10.5761 8.67079 10.7802 8.56351C11.0755 8.40826 11.1793 8.07343 11.025 7.77425C10.9929 7.71196 10.915 7.627 10.8519 7.58543C10.7396 7.51143 10.3839 7.35413 10.0927 7.24975C10.0122 7.22086 9.93605 7.18855 9.9236 7.17797C9.91115 7.16736 9.97765 7.09374 10.0714 7.01435C10.7693 6.42346 11.2282 5.62896 11.4154 4.68738C11.4912 4.30635 11.4834 3.58975 11.3991 3.19324C11.011 1.36723 9.47445 0.0743848 7.62189 0.0151758C7.41786 0.00864262 7.15434 0.0154688 7.0363 0.0303223ZM7.06132 1.20319C5.17516 1.53899 4.14464 3.53851 4.98625 5.22938C5.51339 6.28837 6.6371 6.90554 7.80025 6.7749C8.16063 6.73441 8.43083 6.6552 8.74331 6.49846C9.04012 6.34954 9.18611 6.24844 9.4196 6.03C10.4148 5.09909 10.5958 3.58925 9.84921 2.44617C9.77553 2.33338 9.60904 2.13486 9.47919 2.00502C9.1029 1.62873 8.70362 1.39819 8.18843 1.25974C7.91837 1.18717 7.31995 1.15717 7.06132 1.20319ZM11.9501 9.51504C11.8237 9.58108 11.7784 9.62637 11.7124 9.75278L11.6308 9.90891V10.7698V11.6307H10.7699H9.90898L9.75285 11.7123C9.62644 11.7783 9.58115 11.8236 9.51511 11.95C9.46791 12.0404 9.43355 12.1527 9.43355 12.2167C9.43355 12.2806 9.46791 12.393 9.51511 12.4833C9.58115 12.6097 9.62644 12.655 9.75285 12.7211L9.90898 12.8026H10.7699H11.6308V13.6635V14.5245L11.7124 14.6806C11.7784 14.807 11.8237 14.8523 11.9501 14.9183C12.0405 14.9655 12.1528 14.9999 12.2168 14.9999C12.2807 14.9999 12.393 14.9655 12.4834 14.9183C12.6098 14.8523 12.6551 14.807 12.7211 14.6806L12.8027 14.5245V13.6635V12.8026H13.6636H14.5245L14.6806 12.7211C14.8071 12.655 14.8524 12.6097 14.9184 12.4833C14.9656 12.393 15 12.2806 15 12.2167C15 12.1527 14.9656 12.0404 14.9184 11.95C14.8524 11.8236 14.8071 11.7783 14.6806 11.7123L14.5245 11.6307H13.6636H12.8027V10.7698V9.90891L12.7211 9.75278C12.6551 9.62637 12.6098 9.58108 12.4834 9.51504C12.393 9.46784 12.2807 9.43348 12.2168 9.43348C12.1528 9.43348 12.0405 9.46784 11.9501 9.51504Z" fill="#667085"/>
</g>
<defs>
<clipPath id="clip0_988_1897">
<rect width="15" height="15" fill="white"/>
</clipPath>
</defs>
</svg>
