<svg width="22" height="17" viewBox="0 0 22 17" fill="none" xmlns="http://www.w3.org/2000/svg">
<path fill-rule="evenodd" clip-rule="evenodd" d="M7.19045 0.197429C5.43763 0.53237 4.13636 1.93268 3.958 3.67592C3.88414 4.3978 3.99607 5.0666 4.29943 5.71603C5.09822 7.42589 7.01884 8.34031 8.83005 7.87307C9.2084 7.77544 9.77408 7.52042 10.0816 7.3088C10.8375 6.78875 11.4183 5.94858 11.6707 5.01014C11.7841 4.58845 11.7838 3.54723 11.6701 3.12429C11.2862 1.69601 10.1926 0.603397 8.80857 0.265405C8.33759 0.150377 7.599 0.119354 7.19045 0.197429ZM15.5332 2.57064C14.9055 2.70319 14.2351 3.12579 13.8534 3.62947C13.0381 4.70537 13.0381 6.13855 13.8534 7.21444C14.366 7.89085 15.2896 8.34383 16.1562 8.34383C16.9612 8.34383 17.8855 7.92145 18.3673 7.33351C19.2686 6.23359 19.3054 4.7464 18.459 3.62947C17.8044 2.76563 16.6271 2.33955 15.5332 2.57064ZM7.06834 9.12432C3.72687 9.50115 1.09693 12.1491 0.7295 15.5067C0.638664 16.3366 0.692375 16.5942 1.0048 16.8275C1.12331 16.916 1.13156 16.9161 7.81268 16.9264L14.5019 16.9366L14.6738 16.8404C14.7929 16.7738 14.8775 16.6799 14.9494 16.5349C15.0523 16.3274 15.0527 16.3207 15.0035 15.74C14.9762 15.4179 14.9234 15.0094 14.8862 14.8321C14.7862 14.3558 14.5037 13.533 14.2861 13.0843C13.733 11.9438 12.7067 10.8118 11.623 10.1469C10.2729 9.31862 8.62539 8.9487 7.06834 9.12432ZM15.2795 9.22929C14.8492 9.30698 14.2698 9.50051 13.8806 9.69653C13.7142 9.78028 13.5781 9.85749 13.5781 9.8681C13.5781 9.87872 13.7489 10.0596 13.9575 10.2701C15.0552 11.3772 15.8719 12.8974 16.2004 14.4454C16.2531 14.6935 16.3028 14.9208 16.3108 14.9503C16.3223 14.9923 16.8029 15.004 18.5306 15.004C20.7319 15.004 20.736 15.0038 20.9272 14.9073C21.3036 14.7173 21.3793 14.3977 21.2504 13.5429C21.1385 12.8008 20.8327 12.021 20.4021 11.3798C19.9629 10.726 19.0421 9.95589 18.2892 9.61279C17.3911 9.20351 16.2367 9.05643 15.2795 9.22929Z" fill="url(#paint0_linear_307_9486)"/>
<defs>
<linearGradient id="paint0_linear_307_9486" x1="10.9991" y1="16.9366" x2="10.9991" y2="0.154296" gradientUnits="userSpaceOnUse">
<stop stop-color="#0D4162"/>
<stop offset="1" stop-color="#067CCC"/>
</linearGradient>
</defs>
</svg>
