<svg width="21" height="22" viewBox="0 0 21 22" fill="none" xmlns="http://www.w3.org/2000/svg">
<path fill-rule="evenodd" clip-rule="evenodd" d="M13.6839 0.092016C13.4383 0.203947 13.1717 0.455916 13.041 0.699557C12.9492 0.87078 12.9432 0.94881 12.9301 2.13873L12.9163 3.39685L13.2216 3.38341L13.5269 3.36997L13.5493 2.19318C13.5809 0.53363 13.4775 0.632254 15.1861 0.632254C16.8947 0.632254 16.7913 0.53363 16.8229 2.19318L16.8453 3.36997L17.1506 3.38341L17.4559 3.39685L17.4421 2.13873C17.4265 0.724089 17.4216 0.700915 17.0621 0.351272C16.7132 0.0119037 16.6496 0 15.1861 0C13.9748 0 13.8718 0.0062913 13.6839 0.092016ZM4.58072 3.47814C4.20332 3.55907 3.85879 3.82367 3.67229 4.17589C3.57502 4.35951 3.5713 4.41328 3.55825 5.82539L3.54471 7.28506H3.86094H4.17713L4.17731 5.91591C4.17744 4.62275 4.18247 4.53843 4.26789 4.39703C4.44363 4.10614 4.59951 4.07351 5.8139 4.07351C7.0283 4.07351 7.18417 4.10614 7.35991 4.39703C7.44534 4.53843 7.45036 4.62275 7.45049 5.91591L7.45067 7.28506H7.76457H8.07847L8.07803 5.87065C8.07762 4.4771 8.07601 4.45284 7.97108 4.22531C7.83852 3.938 7.61928 3.713 7.33386 3.57138C7.1204 3.46547 7.08157 3.46221 5.92601 3.45347C5.27242 3.44854 4.66704 3.45963 4.58072 3.47814ZM10.3718 4.12361C10.1283 4.24568 9.93816 4.50489 9.87543 4.80022C9.84852 4.92673 9.82735 5.52132 9.82735 6.14923V7.27203L10.1973 7.30276C10.8774 7.3592 11.3602 7.68499 11.6367 8.27397L11.778 8.575L11.7905 13.7515C11.7987 17.1617 11.7873 19.015 11.7568 19.1829C11.7314 19.323 11.6602 19.5363 11.5986 19.6568C11.537 19.7774 11.4865 19.8843 11.4865 19.8945C11.4865 19.9406 19.6181 19.9104 19.8021 19.8637C20.0431 19.8024 20.2956 19.5968 20.4116 19.3672C20.4985 19.1954 20.5 19.0675 20.5 11.9559V4.71943L20.399 4.52666C20.3435 4.42062 20.2103 4.26976 20.1031 4.19137L19.9082 4.04889L15.2378 4.03725L10.5673 4.02567L10.3718 4.12361ZM12.2937 6.19879C12.205 6.28836 12.204 6.34965 12.204 11.9419C12.204 17.3679 12.2074 17.5987 12.2867 17.6977C12.3991 17.8378 12.6367 17.8378 12.7491 17.6977C12.8285 17.5987 12.8318 17.3682 12.8318 11.9499V6.30511L12.7281 6.20667C12.5983 6.08369 12.4111 6.0803 12.2937 6.19879ZM14.9576 6.20354C14.8748 6.29597 14.8718 6.46466 14.8589 11.8499C14.8499 15.6323 14.8607 17.4533 14.8927 17.5652C14.9591 17.7969 15.1623 17.8834 15.3347 17.7535L15.4552 17.6627L15.4671 11.9647L15.4791 6.26668L15.3837 6.18748C15.2546 6.0803 15.0616 6.08758 14.9576 6.20354ZM17.63 6.19879C17.5413 6.28836 17.5404 6.34965 17.5404 11.9419C17.5404 17.3679 17.5437 17.5987 17.623 17.6977C17.7355 17.8378 17.973 17.8378 18.0855 17.6977C18.1648 17.5987 18.1682 17.3682 18.1682 11.9505C18.1682 6.33299 18.1677 6.30592 18.0767 6.20735C17.9614 6.08238 17.7494 6.07831 17.63 6.19879ZM1.20946 7.98186C0.930404 8.05771 0.709462 8.23478 0.59426 8.47493C0.500135 8.67123 0.5 8.67861 0.5 13.9319C0.5 19.0772 0.501928 19.1962 0.588386 19.3672C0.704439 19.5968 0.956861 19.8024 1.19794 19.8637C1.47762 19.9347 10.2231 19.9325 10.4587 19.8613C10.686 19.7925 10.9283 19.5849 11.0506 19.3541L11.1502 19.1661V13.9372V8.70839L11.0357 8.48371C10.9004 8.21844 10.6372 8.01499 10.359 7.96076C10.2516 7.93981 8.19619 7.92315 5.79148 7.92374C2.41892 7.9246 1.3713 7.93786 1.20946 7.98186ZM2.92152 10.1365C2.83332 10.2255 2.83184 10.2874 2.83184 13.9108C2.83184 17.4234 2.8357 17.5994 2.91453 17.6977C2.97045 17.7674 3.04529 17.8007 3.14574 17.8007C3.24619 17.8007 3.32103 17.7674 3.37695 17.6977C3.45578 17.5994 3.45964 17.4234 3.45964 13.9108C3.45964 10.2874 3.45816 10.2255 3.36996 10.1365C3.32013 10.0862 3.22049 10.046 3.14574 10.046C3.07099 10.046 2.97135 10.0862 2.92152 10.1365ZM5.59637 10.129C5.52803 10.2053 5.52283 10.5192 5.53336 13.9374L5.54484 17.6627L5.66529 17.7535C5.83767 17.8834 6.04081 17.7969 6.1074 17.5652C6.13924 17.4545 6.15027 16.2335 6.14121 13.8187C6.1283 10.3699 6.12462 10.233 6.04238 10.1413C5.93484 10.0213 5.69874 10.0149 5.59637 10.129ZM8.25785 10.1365C8.16964 10.2255 8.16816 10.2874 8.16816 13.9108C8.16816 17.4234 8.17202 17.5994 8.25085 17.6977C8.30677 17.7674 8.38161 17.8007 8.48206 17.8007C8.58251 17.8007 8.65735 17.7674 8.71327 17.6977C8.79211 17.5994 8.79596 17.4234 8.79596 13.9108C8.79596 10.2874 8.79448 10.2255 8.70628 10.1365C8.65646 10.0862 8.55682 10.046 8.48206 10.046C8.40731 10.046 8.30767 10.0862 8.25785 10.1365ZM2.26794 20.4569C1.75951 20.7109 1.66108 21.3811 2.07386 21.7778C2.47807 22.1664 3.1526 22.0262 3.38045 21.5064C3.68193 20.8184 2.94179 20.1202 2.26794 20.4569ZM8.62413 20.4601C8.34274 20.6044 8.19166 20.8556 8.19363 21.1758C8.19547 21.48 8.28682 21.672 8.51215 21.8455C8.65713 21.9571 8.71538 21.9723 8.99776 21.9723C9.28013 21.9723 9.33839 21.9571 9.48336 21.8455C9.7 21.6788 9.79821 21.4803 9.8013 21.2029C9.80834 20.5757 9.17632 20.1769 8.62413 20.4601ZM11.6286 20.4601C11.3472 20.6044 11.1961 20.8556 11.1981 21.1758C11.2 21.48 11.2913 21.672 11.5166 21.8455C11.6616 21.9571 11.7199 21.9723 12.0022 21.9723C12.2846 21.9723 12.3429 21.9571 12.4878 21.8455C12.7045 21.6788 12.8027 21.4803 12.8058 21.2029C12.8128 20.5757 12.1808 20.1769 11.6286 20.4601ZM17.9963 20.4627C17.5251 20.6981 17.4079 21.3142 17.7551 21.7307C17.9039 21.9092 18.1069 21.9949 18.3804 21.9949C19.0129 21.9949 19.3787 21.3252 19.0528 20.7638C18.8374 20.3927 18.391 20.2655 17.9963 20.4627Z" fill="url(#paint0_linear_307_9489)"/>
<defs>
<linearGradient id="paint0_linear_307_9489" x1="10.5" y1="22" x2="10.5" y2="-4.91616e-07" gradientUnits="userSpaceOnUse">
<stop stop-color="#0D4162"/>
<stop offset="1" stop-color="#067CCC"/>
</linearGradient>
</defs>
</svg>
