<svg width="22" height="20" viewBox="0 0 22 20" fill="none" xmlns="http://www.w3.org/2000/svg">
<path fill-rule="evenodd" clip-rule="evenodd" d="M8.51493 0.35505C7.65465 0.541793 6.9161 1.21748 6.59096 2.11535C6.52852 2.28774 6.50854 2.51273 6.48994 3.25402L6.46669 4.17785L3.87782 4.18894L1.28896 4.20002L1.28921 4.68308C1.28952 5.23011 1.37502 5.87241 1.50629 6.3131C2.11404 8.35385 3.89746 10.0935 6.40224 11.089C6.87567 11.2771 7.75296 11.5493 8.08996 11.6125L8.24989 11.6425V10.978C8.24989 10.3597 8.2566 10.3037 8.34657 10.1716C8.39977 10.0934 8.49782 9.98907 8.56455 9.93962C8.68414 9.85102 8.71929 9.84973 10.9999 9.84973C13.2805 9.84973 13.3157 9.85102 13.4352 9.93962C13.502 9.98907 13.6 10.0934 13.6532 10.1716C13.7431 10.3036 13.7499 10.3599 13.7499 10.9733C13.7499 11.4127 13.7652 11.6329 13.7958 11.6329C13.9023 11.6329 14.7136 11.4088 15.1236 11.2661C17.8703 10.31 19.8458 8.48792 20.4935 6.3131C20.6248 5.87241 20.7103 5.23011 20.7106 4.68308L20.7108 4.20002L18.122 4.18894L15.5331 4.17785L15.5099 3.25402C15.4847 2.25397 15.4672 2.16365 15.1976 1.64269C15.0008 1.26259 14.497 0.778765 14.0881 0.577285C13.5224 0.298547 13.4324 0.290339 10.9784 0.293347C9.28828 0.29541 8.72478 0.309504 8.51493 0.35505ZM8.72234 1.63535C8.31572 1.74702 7.92991 2.12614 7.81991 2.52205C7.7967 2.60558 7.77762 3.01714 7.7775 3.43664L7.77724 4.19934H11.0031H14.229L14.215 3.3507L14.2011 2.50207L14.0736 2.27193C13.9321 2.01644 13.74 1.83902 13.4491 1.69529C13.2578 1.60071 13.2332 1.59964 11.0858 1.59096C9.47102 1.58443 8.86641 1.59577 8.72234 1.63535ZM0.0156206 11.2247L0.0213784 17.1114L0.122355 17.4122C0.453859 18.3998 1.10866 19.1135 2.02123 19.4822C2.61544 19.7222 2.24901 19.7134 11.1503 19.7009C20.3613 19.6879 19.5023 19.7198 20.2281 19.3645C20.8364 19.0667 21.3124 18.601 21.6306 17.9923C21.7955 17.6767 21.9569 17.1857 21.9569 16.9995C21.9569 16.9311 21.9763 16.8751 21.9999 16.8751C22.0283 16.8751 22.0429 14.9192 22.0429 11.0933C22.0429 7.24969 22.0285 5.32035 21.9999 5.33801C21.9763 5.35262 21.9569 5.43288 21.9569 5.51641C21.9569 5.74866 21.7949 6.49602 21.651 6.92785C21.2696 8.07219 20.6316 9.04982 19.6307 10.0242C18.8188 10.8145 18.0149 11.3724 16.9081 11.9134C16.0989 12.309 15.3466 12.5812 14.4332 12.8088L13.7201 12.9864L13.6694 13.2308C13.5568 13.7738 13.0732 14.4947 12.606 14.8162C12.0952 15.1677 11.5943 15.327 10.9999 15.327C10.4067 15.327 9.90449 15.1676 9.39669 14.8182C8.92008 14.4903 8.4442 13.7809 8.33003 13.2281L8.27898 12.981L7.75958 12.8612C5.24758 12.2817 2.9729 10.923 1.56688 9.16223C0.760355 8.15216 0.20507 6.85816 0.0457417 5.6173C0.0255894 5.46021 0.0123979 7.9133 0.0156206 11.2247ZM0.0207769 11.1388C0.0207769 14.3292 0.0258901 15.6408 0.0321206 14.0533C0.0383511 12.4658 0.0383511 9.85544 0.0321206 8.25249C0.0258901 6.64954 0.0207769 7.94836 0.0207769 11.1388ZM9.54665 12.0315L9.56044 12.9458L9.70189 13.2328C9.85589 13.5454 10.0715 13.7593 10.3925 13.9179C10.6808 14.0604 11.319 14.0604 11.6073 13.9179C11.9283 13.7593 12.1439 13.5454 12.2979 13.2328L12.4393 12.9458L12.4531 12.0315L12.4669 11.1173H10.9999H9.53286L9.54665 12.0315Z" fill="url(#paint0_linear_307_9493)"/>
<defs>
<linearGradient id="paint0_linear_307_9493" x1="11.029" y1="19.706" x2="11.029" y2="0.292968" gradientUnits="userSpaceOnUse">
<stop stop-color="#0D4162"/>
<stop offset="1" stop-color="#067CCC"/>
</linearGradient>
</defs>
</svg>
