<svg width="18" height="15" viewBox="0 0 18 15" fill="none" xmlns="http://www.w3.org/2000/svg">
<path d="M17.4322 4.06915H16.3778L15.7049 1.25935C15.6361 0.971711 15.4724 0.715674 15.24 0.532659C15.0079 0.349509 14.7207 0.25 14.425 0.25H3.80788C3.51211 0.25 3.225 0.349506 2.99282 0.532659C2.7605 0.715677 2.59675 0.971721 2.52791 1.25935L1.85694 4.06915H0.56388C0.362506 4.06915 0.176336 4.17666 0.0755152 4.35115C-0.0251717 4.52552 -0.0251717 4.74054 0.0755152 4.9149C0.176333 5.0894 0.3625 5.1969 0.56388 5.1969H1.58636L1.49799 5.57276L0.900282 6.13664C0.508543 6.5116 0.286595 7.03024 0.285689 7.57247V13.5456C0.285689 13.745 0.364876 13.9363 0.505942 14.0772C0.646877 14.2181 0.838155 14.2974 1.03757 14.2974H3.8568C4.05621 14.2974 4.24737 14.2181 4.38843 14.0772C4.52936 13.9362 4.60855 13.745 4.60855 13.5456V12.2863H13.3915V13.5456C13.3915 13.745 13.4707 13.9363 13.6117 14.0772C13.7527 14.2181 13.9439 14.2974 14.1434 14.2974H16.9626C17.1619 14.2974 17.3531 14.2181 17.4941 14.0772C17.6351 13.9362 17.7143 13.745 17.7143 13.5456V7.4842C17.7141 7.01393 17.5469 6.55903 17.2426 6.20045L16.752 5.62163L16.6506 5.19502H17.4361V5.19489C17.6376 5.19489 17.8238 5.08752 17.9245 4.91302C18.0252 4.73852 18.0252 4.52363 17.9245 4.34914C17.8238 4.17477 17.6376 4.06727 17.4361 4.06727L17.4322 4.06915ZM3.8546 9.7583C3.8546 9.90789 3.79521 10.0513 3.68954 10.157C3.58374 10.2628 3.44031 10.3222 3.29085 10.3222H1.97511C1.82565 10.3222 1.68222 10.2628 1.57642 10.157C1.47075 10.0513 1.41136 9.90789 1.41136 9.7583V9.04221C1.41136 8.89276 1.47075 8.74933 1.57642 8.64353C1.68222 8.53773 1.82565 8.47834 1.97511 8.47834H3.29085C3.44031 8.47834 3.58374 8.53773 3.68954 8.64353C3.79521 8.74933 3.8546 8.89275 3.8546 9.04221V9.7583ZM2.74758 5.20624L3.6253 1.52244C3.64575 1.43579 3.72428 1.37535 3.8133 1.37771H14.4267C14.5157 1.37535 14.5943 1.43579 14.6147 1.52244L15.4868 5.20624H2.74758ZM16.5843 9.7583C16.5843 9.90789 16.5249 10.0513 16.4191 10.157C16.3135 10.2628 16.17 10.3222 16.0204 10.3222H14.7048C14.5552 10.3222 14.4119 10.2628 14.3061 10.157C14.2003 10.0513 14.1409 9.90789 14.1409 9.7583V9.04221C14.1409 8.89276 14.2003 8.74933 14.3061 8.64353C14.4119 8.53773 14.5552 8.47834 14.7048 8.47834H16.0204C16.17 8.47834 16.3134 8.53773 16.4191 8.64353C16.5249 8.74933 16.5843 8.89275 16.5843 9.04221V9.7583Z" fill="url(#paint0_linear_307_9316)"/>
<defs>
<linearGradient id="paint0_linear_307_9316" x1="9" y1="14.2974" x2="9" y2="0.25" gradientUnits="userSpaceOnUse">
<stop stop-color="#0D4162"/>
<stop offset="1" stop-color="#067CCC"/>
</linearGradient>
</defs>
</svg>
